<svg xmlns="http://www.w3.org/2000/svg" version="1.1" xmlns:xlink="http://www.w3.org/1999/xlink" viewBox="0 0 200 200" width="200" height="200"><metadata><rdf:RDF xmlns:rdf="http://www.w3.org/1999/02/22-rdf-syntax-ns#" xmlns:dc="http://purl.org/dc/elements/1.1/"><rdf:Description><dc:creator>RealFaviconGenerator</dc:creator><dc:source>https://realfavicongenerator.net</dc:source></rdf:Description></rdf:RDF></metadata><rect width="200" height="200" fill="url('#gradient')"></rect><defs><linearGradient id="gradient" gradientTransform="rotate(104 0.5 0.5)"><stop offset="0%" stop-color="#5db5fd"></stop><stop offset="100%" stop-color="#11d0c5"></stop></linearGradient></defs><g><g fill="#090a0b" transform="matrix(1.5287384921622293,0,0,1.5287384921622293,8.687005107840008,108.21041888815753)" stroke="#6a3746" stroke-width="0.2"><path d="M0.86-10.57L3.95-10.57L4.05-9.33Q5.15-10.76 7.07-10.76L7.07-10.76Q8.72-10.76 9.54-9.78Q10.35-8.79 10.38-6.81L10.38-6.81L10.38 0L7.08 0L7.08-6.67Q7.08-7.47 6.76-7.85Q6.44-8.22 5.59-8.22L5.59-8.22Q4.62-8.22 4.15-7.46L4.15-7.46L4.15 0L0.86 0L0.86-10.57ZM17.31 0.20L17.31 0.20Q14.88 0.20 13.38-1.25Q11.88-2.71 11.88-5.03L11.88-5.03L11.88-5.30Q11.88-6.92 12.48-8.16Q13.08-9.40 14.23-10.08Q15.38-10.76 16.96-10.76L16.96-10.76Q19.19-10.76 20.48-9.38Q21.77-8.00 21.77-5.53L21.77-5.53L21.77-4.25L15.22-4.25Q15.40-3.36 16.00-2.85Q16.59-2.34 17.54-2.34L17.54-2.34Q19.10-2.34 19.98-3.44L19.98-3.44L21.48-1.66Q20.87-0.81 19.74-0.31Q18.61 0.20 17.31 0.20ZM16.94-8.22L16.94-8.22Q15.50-8.22 15.22-6.31L15.22-6.31L18.54-6.31L18.54-6.56Q18.56-7.35 18.14-7.79Q17.72-8.22 16.94-8.22ZM30.56-10.57L32.22-4.34L33.28-10.57L36.44-10.57L33.95 0L31.16 0L29.41-6.27L27.66 0L24.87 0L22.38-10.57L25.54-10.57L26.58-4.19L28.26-10.57L30.56-10.57ZM43.14-2.97L43.14-2.97Q43.14-3.39 42.71-3.64Q42.27-3.90 41.04-4.17Q39.80-4.44 39.00-4.89Q38.20-5.33 37.78-5.97Q37.36-6.60 37.36-7.42L37.36-7.42Q37.36-8.88 38.56-9.82Q39.77-10.76 41.71-10.76L41.71-10.76Q43.80-10.76 45.07-9.81Q46.34-8.87 46.34-7.32L46.34-7.32L43.04-7.32Q43.04-8.59 41.70-8.59L41.70-8.59Q41.18-8.59 40.83-8.31Q40.48-8.02 40.48-7.59L40.48-7.59Q40.48-7.15 40.91-6.88Q41.34-6.60 42.28-6.43Q43.22-6.25 43.94-6.01L43.94-6.01Q46.32-5.19 46.32-3.07L46.32-3.07Q46.32-1.62 45.03-0.71Q43.75 0.20 41.71 0.20L41.71 0.20Q40.35 0.20 39.29-0.29Q38.22-0.78 37.63-1.62Q37.03-2.46 37.03-3.39L37.03-3.39L40.11-3.39Q40.13-2.66 40.60-2.32Q41.06-1.98 41.80-1.98L41.80-1.98Q42.47-1.98 42.81-2.26Q43.14-2.53 43.14-2.97ZM47.88-10.57L50.97-10.57L51.07-9.33Q52.20-10.76 54.09-10.76L54.09-10.76Q56.09-10.76 56.80-9.17L56.80-9.17Q57.87-10.76 59.90-10.76L59.90-10.76Q63.12-10.76 63.20-6.88L63.20-6.88L63.20 0L59.90 0L59.90-6.67Q59.90-7.48 59.63-7.85Q59.36-8.22 58.63-8.22L58.63-8.22Q57.66-8.22 57.18-7.35L57.18-7.35L57.19-7.22L57.19 0L53.89 0L53.89-6.65Q53.89-7.48 53.62-7.85Q53.36-8.22 52.62-8.22L52.62-8.22Q51.67-8.22 51.17-7.35L51.17-7.35L51.17 0L47.88 0L47.88-10.57ZM64.68-4.82L64.67-5.38Q64.67-6.96 65.28-8.20Q65.90-9.43 67.05-10.10Q68.20-10.76 69.76-10.76L69.76-10.76Q72.13-10.76 73.50-9.29Q74.86-7.82 74.86-5.29L74.86-5.29L74.86-5.18Q74.86-2.71 73.49-1.25Q72.12 0.20 69.78 0.20L69.78 0.20Q67.52 0.20 66.15-1.16Q64.79-2.51 64.68-4.82L64.68-4.82ZM67.97-5.77L67.96-5.18Q67.96-3.71 68.42-3.03Q68.88-2.34 69.78-2.34L69.78-2.34Q71.53-2.34 71.57-5.05L71.57-5.05L71.57-5.38Q71.57-8.22 69.76-8.22L69.76-8.22Q68.11-8.22 67.97-5.77L67.97-5.77ZM76.25-10.57L79.34-10.57L79.44-9.33Q80.54-10.76 82.46-10.76L82.46-10.76Q84.11-10.76 84.93-9.78Q85.74-8.79 85.77-6.81L85.77-6.81L85.77 0L82.47 0L82.47-6.67Q82.47-7.47 82.15-7.85Q81.83-8.22 80.98-8.22L80.98-8.22Q80.01-8.22 79.54-7.46L79.54-7.46L79.54 0L76.25 0L76.25-10.57ZM94.14 0L91.84-3.94L90.91-3.01L90.91 0L87.62 0L87.62-15.01L90.91-15.01L90.91-7.04L91.24-7.48L93.72-10.57L97.67-10.57L93.96-6.22L97.91 0L94.14 0ZM103.45 0.20L103.45 0.20Q101.02 0.20 99.51-1.25Q98.01-2.71 98.01-5.03L98.01-5.03L98.01-5.30Q98.01-6.92 98.61-8.16Q99.21-9.40 100.36-10.08Q101.51-10.76 103.10-10.76L103.10-10.76Q105.32-10.76 106.61-9.38Q107.90-8.00 107.90-5.53L107.90-5.53L107.90-4.25L101.36-4.25Q101.53-3.36 102.13-2.85Q102.72-2.34 103.67-2.34L103.67-2.34Q105.23-2.34 106.11-3.44L106.11-3.44L107.62-1.66Q107.00-0.81 105.87-0.31Q104.75 0.20 103.45 0.20ZM103.08-8.22L103.08-8.22Q101.63-8.22 101.36-6.31L101.36-6.31L104.68-6.31L104.68-6.56Q104.70-7.35 104.28-7.79Q103.86-8.22 103.08-8.22ZM111.65-10.57L113.32-4.61L115.08-10.57L118.60-10.57L114.30 1.77L114.11 2.22Q113.19 4.27 110.87 4.27L110.87 4.27Q110.22 4.27 109.51 4.07L109.51 4.07L109.51 1.72L109.94 1.72Q110.63 1.72 111.00 1.52Q111.37 1.32 111.54 0.80L111.54 0.80L111.81 0.10L108.13-10.57L111.65-10.57Z"></path></g></g></svg>